<svg xmlns="http://www.w3.org/2000/svg" version="1.1" id="construction" x="0px" y="0px" width="100px" height="100px" viewBox="0 0 100 100" enable-background="new 0 0 100 100" xml:space="preserve">
  <g id="hammer">
    <line fill="none" stroke="#4BD675" stroke-width="3" stroke-linecap="round" stroke-miterlimit="10" x1="45.17" y1="73.85" x2="43.71" y2="21.46"/>
    <polygon fill="#4BD675" points="60.67 1.98 60.72 3.98 26.74 4.93 26.68 2.93 18.68 3.16 19.27 24.15 27.27 23.93 27.21 21.93 61.2 20.98 61.25 22.97 69.25 22.75 68.66 1.76 "/>
    <line fill="none" stroke="#4BD675" stroke-width="3" stroke-linecap="round" stroke-miterlimit="10" x1="70.99" y1="73.85" x2="42.94" y2="68.48"/>
    <line fill="none" stroke="#4BD675" stroke-width="3" stroke-linecap="round" stroke-miterlimit="10" x1="70.54" y1="69.17" x2="42.49" y2="63.8"/>
  </g>
  <path id="body" fill="#4BD675" d="M85.4 51.86c0-10.96-10.17-19.85-22.73-19.85s-22.73 8.89-22.73 19.85c0 10.96 10.13 19.85 22.69 19.85 0.14 0 0.37-0.02 0.37-0.02v4.29c-4 1.23-6.56 4.13-6.56 7.52 0 2.9 2.03 5.43 5.04 6.88 -0.12 0.68-0.17 1.43-0.17 2.22 0 3.06 0.97 5.54 2.16 5.54 1.19 0 2.16-2.48 2.16-5.54 0-0.36-0.01-0.71-0.04-1.06 0.55 0.07 1.11 0.11 1.68 0.11 1.28 0 2.51-0.18 3.65-0.49 -0.05 0.46-0.08 0.94-0.08 1.44 0 3.06 0.96 5.54 2.15 5.54 1.19 0 2.16-2.48 2.16-5.54 0-1.21-0.15-2.13-0.41-3.05C76.74 88.09 78 86 78.05 84H78V66.46C83 62.83 85.4 57.64 85.4 51.86zM47 59h10v2H47V59zM72 66H57v-2h15V66zM75 61H65v-2h10V61z"/>
</svg>
