<svg id="Layer_1" version="1" viewBox="0 0 1000 500">
  <g id="me">
	<path id="meBody" fill="#4BD675" d="M960 243a115 115 0 1 0-152 109 55 55 0 0 0-21 42c0 32 29 58 66 58 36 0 65-26 65-58 0-18-10-35-26-46 40-18 68-58 68-105z"/>
	<path id="meLegL" fill="#4BD675" d="M842 463c0 12-8 23-18 23s-18-11-18-23v-30c0-13 8-23 18-23s18 10 18 23v30z"/>
	<path id="meLegR" fill="#4BD675" d="M899 463c0 12-7 23-17 23h-1c-10 0-18-11-18-23v-30c0-12 8-23 18-23h1c10 0 17 11 17 23v30z"/>
	<path id="meHandL" fill="#4BD675" d="M774 386c5 4 6 11 2 16l-16 20c-4 5-11 6-16 2l-3-2c-5-4-6-11-2-16l16-20c4-5 11-6 16-2l3 2z"/>
	<path id="meHandR" fill="#4BD675" d="M955 430c-6 2-13-1-15-6l-9-24c-3-6 0-12 6-15l3-1c6-3 13 0 15 6l10 24c2 5-1 12-7 14l-3 2z"/>
	<path id="browR" fill="#335E50" d="M874 219c0 3-2 5-5 5h-59c-3 0-6-2-6-5s3-6 6-6h59c3 0 5 3 5 6z"/>
	<path id="browL" fill="#335E50" d="M784 219c0 3-2 5-5 5h-59c-3 0-6-2-6-5s3-6 6-6h59c3 0 5 3 5 6z"/>
	<g id="glasses">
	  <path fill="#57D4D0" d="M716 233h60v36h-60v-36zm92 0h58v36h-58v-36z"/>
	  <path id="_x3C_Path_x3E_" fill="#335E50" d="M867 230h-60c-2 0-3 1-3 3v11h-24v-11c0-2-2-3-3-3h-60c-2 0-3 1-3 3v37c0 1 1 3 3 3h60l3-3v-20h24v20c0 1 1 3 3 3h60l3-3v-37c0-2-2-3-3-3zm-94 36h-53v-30h53v30zm90 0h-53v-30h53v30z"/>
	</g>
  </g>
  <path id="bubble" fill="none" stroke="#4BD675" stroke-linejoin="round" stroke-miterlimit="10" stroke-width="10"
	  d="M673 93H319c-6 0-9 4-9 9v171l-29 33 56-17h336c5 0 9-4 9-8V102c0-5-4-9-9-9z"/>
  <g id="you">
	<path id="youBody_1_" fill="#4BD675" d="M266 243a115 115 0 1 0-152 109 55 55 0 0 0-21 42c0 32 29 58 65 58s66-26 66-58c0-18-10-35-26-46 40-18 68-58 68-105z"/>
	<path id="youLegL_1_" fill="#4BD675" d="M148 463c0 12-8 23-18 23s-18-11-18-23v-30c0-13 8-23 18-23s18 10 18 23v30z"/>
	<path id="youLegR_1_" fill="#4BD675" d="M206 463c0 12-8 23-18 23h-1c-10 0-18-11-18-23v-30c0-12 8-23 18-23 11 0 19 11 19 23v30z"/>
	<path id="youHandL_1_" fill="#4BD675" d="M80 386c5 4 6 11 2 16l-16 20c-4 5-11 6-16 2l-3-2c-5-4-6-11-2-16l16-20c4-5 11-6 16-2l3 2z"/>
	<path id="youHandR_1_" fill="#4BD675" d="M261 430c-6 2-12-1-15-6l-9-24c-3-6 0-12 6-15l3-1c6-3 13 0 15 6l10 24c2 5-1 12-6 14l-4 2z"/>
	<path id="youEyes_1_" fill="#061426" d="M185 261a19 19 0 1 1-37 0 19 19 0 0 1 37 0zm57-18a18 18 0 1 0 0 36 18 18 0 0 0 0-36z"/>
  </g>
  <path id="thing" fill="#4BD675"
	  d="M346 228c-3-4-5-9-5-16v-40h-8l-4-2-1-3 1-4 4-1h8l2-20a7 7 0 0 1 7-6l4 1 2 4v21h12l4 1 2 4-2 3-4 1h-12v38c0 5 0 8 2 10 1 2 3 3 6 3l1 1 5-1 4 2 2 4-1 2-1 1-1 1-2 1h-2l-3 1h-6c-6 0-10-2-14-6zm46 3l-2-5v-89l2-5 5-2 5 2c2 1 3 3 3 5v35c2-4 5-6 9-9 4-2 9-3 14-3l10 2 8 5 6 8 2 13v38c0 2-1 4-3 5l-5 2-5-2-2-5v-39c0-5-1-10-4-12-3-3-6-5-11-5-5 1-10 2-14 6s-6 10-6 16v34c0 2 0 4-2 5l-5 2-5-2zm83-88c-2-1-2-3-2-6 0-2 0-4 2-6l7-2 6 2 3 6c0 3-1 5-3 6l-6 3c-3 0-5-1-7-3zm1 88l-2-5v-57l2-6 6-2 5 2 2 6v57l-2 5-6 2-5-2zm35 0l-2-5v-58l2-5 5-2 6 2 2 5v5c2-4 5-7 9-10 4-2 9-3 14-3l10 2c3 1 6 2 8 5 3 2 5 5 6 8l2 13v38l-2 5a8 8 0 0 1-10 0c-2-1-3-3-3-5v-38c0-6-1-10-4-13s-6-5-11-5-10 2-14 6-5 9-6 16v34c1 2 0 4-2 5l-5 2-5-2zm98 31l-11-4c-2-1-2-2-2-4v-2l1-2 1-1h4l4 2 5 1 5 1 6 1c7 0 13-2 17-5 3-4 5-9 5-16v-13c-2 4-5 7-9 10-3 2-8 3-13 3-10 0-19-3-25-10-5-6-8-15-8-25 0-11 3-20 8-27 6-7 14-11 24-11 6 0 11 2 15 4l9 9v-6l2-4 4-1 5 1 2 5v64c0 11-3 19-9 24-7 5-15 8-26 8l-14-2zm29-45c4-5 6-11 6-20l-1-8-2-8-3-6-6-4-8-1-8 1a18 18 0 0 0-10 10l-2 8a44 44 0 0 0 1 20 20 20 0 0 0 11 13l8 1c6 0 11-2 14-6z"/>
  <path id="wow" fill="#4BD675"
	  d="M397 226l-16-45-15 45c-2 5-5 8-10 8-4 0-7-3-8-8l-17-49v-5l1-1 1-1 1-1h3l3 1 2 3 15 47 16-44c1-5 4-7 8-7s7 2 9 7l15 44 15-47a6 6 0 0 1 6-4h2l2 1 1 1v1l1 1v4l-17 49c-2 5-5 7-9 7-4 1-7-2-9-7zm64 6l-11-7a39 39 0 0 1-6-36c1-5 3-8 6-11 3-4 6-6 11-8 4-2 9-2 14-2 7 0 13 1 18 4s8 7 11 12 4 11 4 17a36 36 0 0 1-9 24c-2 3-6 5-10 7s-9 3-14 3-10-1-14-3zm29-13c3-4 5-10 5-18s-2-14-5-18c-4-4-9-7-15-7-6 1-11 3-15 7-3 4-5 10-5 18s2 14 5 18c4 5 9 7 15 7s11-3 15-7zm94 7l-15-45-16 45c-2 5-5 8-9 8s-7-3-9-8l-17-50v-3l1-1 1-1 1-1 1-1h2l4 1 2 3 15 47 15-44c2-5 5-7 9-7s7 2 8 7l16 44 15-47a6 6 0 0 1 5-4h3l1 1 1 1 1 1v1l1 1-1 3-17 49c-1 5-4 7-8 7-5 1-8-2-10-7zm61 6a7 7 0 0 1 0-11c1-2 3-2 6-2 2 0 4 0 5 2a7 7 0 0 1 0 10c-1 2-3 3-5 3l-6-2zm-2-89c0-3 0-4 2-5 1-2 3-2 5-2s4 0 6 2c1 1 2 2 2 5l-4 59-1 3-3 1h-1l-2-1v-3l-4-59z"/>
</svg>
