<?xml version="1.0" encoding="utf-8"?>
<!-- Generator: Adobe Illustrator 17.1.0, SVG Export Plug-In . SVG Version: 6.00 Build 0)  -->
<!DOCTYPE svg PUBLIC "-//W3C//DTD SVG 1.1//EN" "http://www.w3.org/Graphics/SVG/1.1/DTD/svg11.dtd">

<svg
    xmlns="http://www.w3.org/2000/svg" xmlns:xlink="http://www.w3.org/1999/xlink"
    height="3rem" version="1" viewBox="0 0 530 510">
  <path fill="#335E50" d="M523 58L265 505 7 58z"/>
  <path fill="#1C302E" d="M523 5L265 452 7 5z"/>
  <path fill="#335E50" d="M206 228c-33 0-47-30-49-45l18-3-9 2 9-2c0 1 5 30 31 30 29 0 31-32 31-32V65h-72V47h81c5 0 9 4 9 9v122c0 5-2 17-8 27-7 11-19 23-41 23zm117-1c-40 0-50-37-50-49V89c0-15 11-44 50-44 35 0 48 28 50 43l-18 3s-1-8-6-15c-6-9-14-13-26-13s-21 3-26 11c-5 6-6 13-6 15v89c0 2 1 10 6 17 6 10 14 14 26 14s20-5 26-14c4-8 5-16 5-16l18 1c-1 17-13 47-49 47z"/>
</svg>
