<svg width="530" height="510" viewBox="0 0 530 510">
  <g fill="none">
    <path d="M522.886 58L264.761 505.083 6.633 58z"/>
    <path d="M522.886 5L264.761 452.084 6.633 5z"/>
  </g>
  <path fill="none" d="M-441.082 311v215m-105.875-85.5l58.733 101.73 58.733-101.73m-81.091 65h46m24-194h-100m395-245.5h95v149.076L-76.936 260H-119.5l-25.58-44.5"/>
  <path d="M859-1h86.834c4.971 0 8.584 4.328 8.584 9.298v136.258c0 1.648-.256 3.225-1.028 4.553l-23.981 41.255c-1.672 2.85-4.58 4.635-7.66 4.635h-38.907c-3.318 0-6.218-1.985-7.778-4.658l-.024-.14-23.546-40.627c-1.262-2.175-.522-4.985 1.652-6.247 1.927-1.118 4.332-.676 5.733.953l.583.672 31.183 36.376-7.803-4.33h38.907l-7.764 4.258 23.878-41.161-1.444 4.459V8.298l9.208 9-86.729-9-.411-.048c-2.465-.256-4.231-2.611-3.976-5.076C854.748.872 856.736-1 859-1zm119.418 145.488V49.361c0-1.608.219-3.151.957-4.458l23.296-41.211C1004.327.787 1007.258-1 1010.378-1h38.905c3.311 0 6.21 1.95 7.773 4.613l23.717 40.715c1.241 2.127.523 4.896-1.604 6.137-1.879 1.097-4.229.683-5.607-.9l-.562-.635-31.49-36.249 7.773 4.319h-38.905l7.818-4.394-23.183 41.137 1.404-4.382v95.127c0 4.971-4.029 9-9 9s-8.999-4.029-8.999-9z"/>
  <path d="M996.418 49.429v95.127l-1.4-4.45 23.249 41.256-7.935-4.361h38.833l-7.776 4.28 31.462-36.209.561-.69c1.618-1.857 4.435-2.075 6.292-.458 1.641 1.429 1.981 3.784.924 5.596l-23.686 40.829c-1.668 2.862-4.687 4.651-7.776 4.651h-38.833c-3.347 0-6.271-2.028-7.823-4.738L979.371 149.1c-.793-1.395-.953-3.046-.953-4.544V49.429c0-4.971 4.029-9 9-9s9 4.029 9 9z"/>
  <g fill="none">
    <path d="M609.67 177.599l23.171 40.901h38.907l22.17-43.087V40.5h-84.5m126.5 134.5V79.996l24.46-39.496h38.905l23.192 39.733"/>
    <path d="M735.918 81v94.412l24.414 43.088h38.833l23.159-41.236"/>
  </g>
  <ellipse cx="652.647" cy="174.292" fill="none" rx="43.187" ry="44.331"/>
  <ellipse cx="779.647" cy="174.292" fill="none" rx="43.187" ry="44.331"/>
  <ellipse cx="779.647" cy="85.292" fill="none" rx="43.187" ry="44.331"/>
  <path d="M433.57-111.019c.767 2.746 1.791 5.392 2.94 7.955 1.131 2.568 2.4 5.054 3.834 7.412 2.854 4.713 6.265 8.991 10.301 12.313 4.012 3.329 8.541 5.763 13.371 6.953 2.393.649 4.87.967 7.344 1.146 1.254.027 2.486.117 3.751.022l.939-.037.469-.018.234-.008.059-.002c-.063 0 .225-.004-.128 0l.133-.013 2.119-.208 1.06-.104c.334-.041.587-.106.883-.157l1.707-.309c.578-.118 1.185-.29 1.773-.427.594-.139 1.184-.282 1.749-.487 2.327-.634 4.48-1.598 6.522-2.672 4.072-2.192 7.449-5.314 10.166-9.025 2.705-3.726 4.813-8.043 6.242-12.667.719-2.305 1.279-4.687 1.653-7.061.198-1.185.446-2.369.536-3.496.045-.562.189-1.116.189-1.59v-.349l-.129-.256-.084-.913-.48-16.998c-.131-5.666-.359-11.332-.421-16.998l-.235-16.998c-.104-5.666-.109-11.332-.104-16.998.017-5.666-.051-11.332.033-16.998l.219-16.998c.154-5.666.242-11.332.451-16.998l.316-8.499.434-8.499v.001l9 9-87-9v-9h87c4.971 0 9 4.029 9 9v136.515l.117.681.037.807-.013.714c-.064.942-.139 1.803-.248 2.651-.221 1.692-.484 3.321-.83 4.925a67.7414 67.7414 0 0 1-2.687 9.426c-2.248 6.15-5.418 12.148-9.826 17.484-4.41 5.304-10.105 9.872-16.533 12.793-3.202 1.44-6.527 2.629-9.887 3.321-.84.216-1.678.36-2.518.493-.848.134-1.662.289-2.537.396l-2.697.255c-.435.036-.933.087-1.315.104l-1.062.032-2.124.063-.133.004c-.607.009-.213.001-.369.002l-.079-.002-.314-.01-.629-.021-1.259-.044c-1.671-.018-3.373-.243-5.063-.425-3.384-.498-6.798-1.207-10.097-2.438-6.642-2.307-12.727-6.338-17.594-11.221-4.856-4.924-8.538-10.619-11.299-16.516-1.383-2.956-2.539-5.973-3.507-9.044-.475-1.54-.919-3.086-1.296-4.669a64.713 64.713 0 0 1-.535-2.404c-.169-.84-.313-1.591-.465-2.642l8.916-1.249zm210.001-100.073s-.038-.221-.11-.648c-.095-.512-.267-1.336-.543-2.422-.55-2.168-1.555-5.434-3.412-9.205-1.859-3.752-4.619-8.015-8.743-11.576-4.104-3.566-9.625-6.349-16.619-7.34-3.489-.501-7.252-.577-11.497-.243-.46.038-.922.076-1.387.114-.49.068-.983.137-1.479.206-1.002.109-1.969.311-2.944.505-.995.157-1.916.469-2.888.693-.937.288-1.881.574-2.792.919-7.339 2.677-13.274 8.01-16.563 15.848-.818 1.94-1.485 4.005-1.952 6.125-.454 2.12-.758 4.292-.721 6.149.042 5.572.085 11.211.128 16.896.114 11.37.229 22.919.346 34.469l-.018 17.303c.023 2.876-.082 5.747-.124 8.609-.066 2.862-.086 5.715-.2 8.558-.096 2.842-.19 5.673-.285 8.49l-.07 2.11-.018.527-.009.263c0 .208-.006-.137-.006-.053l-.003.132-.017.812-.008.27.012.396c.004.26.017.532.036.813.024.549.086 1.125.135 1.694.502 4.622 1.677 9.292 3.457 13.447 1.792 4.165 4.163 7.882 7.041 10.972 2.893 3.075 6.328 5.522 10.152 7.219 3.81 1.71 7.932 2.809 12.113 3.367 1.057.107 2.104.213 3.143.318l.098.01c-.051.005.252.004-.089.013l.215.007.43.014.856.027 1.7.054c.608.035.993-.016 1.488-.021l1.41-.039c.938-.015 1.934-.18 2.891-.256 3.83-.481 7.43-1.436 10.657-2.904 3.239-1.447 6.063-3.404 8.54-5.521 4.978-4.254 8.324-9.301 10.621-13.648 1.146-2.188 2.032-4.231 2.739-6.038.73-1.8 1.288-3.37 1.691-4.658.812-2.578 1.088-4.009 1.088-4.009l8.962.832c-.025.237-.187 2.017-.804 5.073-.635 3.058-1.709 7.45-3.917 12.851-2.245 5.353-5.646 11.867-11.633 18.098-2.987 3.086-6.636 6.054-10.925 8.439-4.278 2.392-9.153 4.186-14.271 5.208-.641.114-1.284.229-1.931.345-.649.112-1.281.238-2 .299-.7.072-1.404.144-2.111.217l-1.063.101-.522.045-.422.015-1.696.06-.854.03-.429.015-.215.007c-.656.01-.252.001-.431.002l-.124-.003c-1.318-.038-2.647-.075-3.989-.113-5.386-.311-11.108-1.328-16.784-3.455-5.678-2.08-11.235-5.43-15.946-9.811-4.73-4.376-8.528-9.735-11.364-15.465-2.833-5.76-4.723-11.846-5.791-18.28-.121-.818-.248-1.626-.34-2.473-.052-.415-.097-.84-.133-1.28l-.058-.653-.048-.782-.036-.766-.013-.526-.016-1.237-.023-2.11c-.032-2.817-.063-5.648-.096-8.49-.07-5.685-.142-11.415-.213-17.167-.114-5.752-.229-11.527-.344-17.303-.19-11.55-.322-23.1-.06-34.469.067-5.685.331-11.324.484-16.896.109-3.722.759-7.033 1.584-10.234.851-3.199 1.987-6.279 3.386-9.231 2.79-5.891 6.761-11.266 11.63-15.392 2.435-2.052 5.038-3.825 7.735-5.267 2.707-1.411 5.461-2.581 8.224-3.43 1.377-.436 2.759-.781 4.122-1.111 1.371-.258 2.726-.596 4.072-.748 1.347-.19 2.677-.389 3.995-.447.657-.044 1.313-.089 1.964-.134.674-.013 1.345-.025 2.013-.039 4.951-.045 9.978.349 14.673 1.359 4.704.981 9.088 2.657 12.921 4.79 3.841 2.127 7.12 4.708 9.808 7.432 5.319 5.566 8.274 11.459 10.133 16.324.927 2.448 1.576 4.676 2.057 6.624.465 1.955.723 3.64.906 5.001.358 2.726.362 4.182.362 4.182l-8.919 1.195z"/>
  <path fill="none" d="M206.012 227.695c-33.009 0-46.521-29.225-49.054-44.678l17.763-2.911-8.881 1.456 8.875-1.493c.208 1.209 5.414 29.626 31.297 29.626 29.066 0 31.406-31.447 31.406-31.765V65h-72V47h81c4.971 0 9 4.029 9 9v121.93c0 5.371-2.337 17.125-8.775 27.492-6.311 10.161-18.482 22.273-40.631 22.273zm117.435-.687c-40.838 0-50.029-36.628-50.029-49.46V89.429c0-15.496 10.369-44.802 49.611-44.802 34.856 0 47.647 28.593 49.542 43.712l-17.854 2.286c-.011-.075-1.079-7.588-5.753-14.757-5.809-8.91-14.292-13.241-25.935-13.241-12.298 0-21.208 3.814-26.482 11.337-4.057 5.786-5.129 12.646-5.129 15.465v88.119c0 2.303 1.025 10.545 5.58 17.948 5.594 9.092 14.245 13.512 26.449 13.512 11.54 0 19.854-4.633 25.419-14.164 4.557-7.805 5.434-15.986 5.441-16.068l17.92 1.698c-1.489 16.095-13.6 46.534-48.78 46.534zM165.839-80.438s6.086 37.133 40.172 37.133c34.087 0 40.406-34.469 40.406-40.765V-206h-81m198.224 33.458s-4.488-35.831-40.611-35.831-40.611 28.52-40.611 35.802v88.119c0 6.491 4.762 40.46 41.029 40.46 36.27 0 39.818-38.362 39.818-38.362"/>
</svg>
