<svg width="560" height="560" viewBox="200 0 560 560">
  <path fill="#F7DF1E" d="M200 0h560v560H200z"/>
  <path d="M576.178 437.502c11.28 18.418 25.956 31.956 51.911 31.956 21.805 0 35.733-10.898 35.733-25.956 0-18.044-14.312-24.436-38.312-34.933l-13.155-5.645c-37.974-16.178-63.2-36.444-63.2-79.289 0-39.467 30.071-69.511 77.067-69.511 33.457 0 57.511 11.645 74.844 42.133l-40.978 26.312c-9.022-16.179-18.756-22.552-33.866-22.552-15.414 0-25.183 9.778-25.183 22.552 0 15.786 9.777 22.178 32.355 31.955l13.155 5.636c44.712 19.173 69.956 38.72 69.956 82.667 0 47.377-37.218 73.333-87.2 73.333-48.871 0-80.444-23.289-95.894-53.813l42.767-24.845zm-185.893 4.561c8.266 14.666 15.787 27.066 33.867 27.066 17.289 0 28.195-6.765 28.195-33.066V257.129h52.622v179.645c0 54.489-31.946 79.289-78.577 79.289-42.134 0-66.534-21.805-78.943-48.067l42.836-25.933z"/>
</svg>
