<?xml version="1.0" encoding="utf-8"?>
<!-- Generator: Adobe Illustrator 16.0.0, SVG Export Plug-In . SVG Version: 6.00 Build 0)  -->
<!DOCTYPE svg PUBLIC "-//W3C//DTD SVG 1.1//EN" "http://www.w3.org/Graphics/SVG/1.1/DTD/svg11.dtd">
<svg version="1.1" id="Layer_1" xmlns="http://www.w3.org/2000/svg" xmlns:xlink="http://www.w3.org/1999/xlink" x="0px" y="0px"
	 width="200px" height="200px" viewBox="0 0 200 200" enable-background="new 0 0 200 200" xml:space="preserve">
<g id="Layer_1_1_" display="none">
	<g display="inline">
		<g>
			<defs>
				<rect id="SVGID_1_" x="10.639" width="178.722" height="200"/>
			</defs>
			<clipPath id="SVGID_2_">
				<use xlink:href="#SVGID_1_"  overflow="visible"/>
			</clipPath>
			<g transform="matrix(1 0 0 1 -1.525879e-005 -3.814697e-006)" opacity="0.5" clip-path="url(#SVGID_2_)">
				
					<image overflow="visible" enable-background="new    " width="277" height="183" xlink:href="F086B7DC.jpeg"  transform="matrix(1.3827 0 0 1.3801 -193.6318 -52.5547)">
				</image>
			</g>
		</g>
	</g>
</g>
<g>
	<path fill="#FCFAE3" d="M141.537,71.605c-0.741-2.961-0.959-5.965-1.637-8.825c-1.953-8.27-6.578-15.595-13.698-20.426
		c-3.373-2.289-7.351-4.014-11.235-5.153c-1.563-0.458-3.236-0.626-4.697-0.138c-2.608,3.048-4.363,6.801-7.109,9.743
		c-3.275,3.506-5.489,7.765-8.395,11.534c-2.287,2.968-4.59,5.864-7.047,8.657c-2.981,3.388-5.163,7.18-8.057,10.763
		c-3.635,4.501-7.286,8.864-11.064,13.219c-1.24,1.43-5.628,5.312-4.349,7.35c1.63,2.596,6.659,1.817,9.051,1.295
		c5.098-1.115,10.181-2.312,15.272-3.4c6.34-1.355,12.576-3.142,18.978-4.341c4.501-0.843,8.857-2.327,13.314-3.203
		c5.929-1.166,17.884-1.808,20.736-8.357C142.809,77.549,142.266,74.508,141.537,71.605z M102.063,86.546
		c-0.619,3.477-4.012,4.81-6.488,5.784l-0.079,0.031c-3.518,1.38-7.39,2.103-11.132,2.801l-1.896,0.356
		c-2.138,0.408-4.347,0.829-6.591,0.957c-0.298,0.017-0.607,0.05-0.922,0.084c-0.529,0.059-1.093,0.12-1.669,0.12
		c-0.597,0-1.208-0.064-1.805-0.268c-1.113-0.376-1.491-1.149-1.618-1.576c-0.461-1.558,0.758-3.281,2.047-4.912
		c0.105-0.134,0.2-0.253,0.275-0.354c1.572-2.083,3.336-4.019,5.043-5.891c0.931-1.021,1.894-2.077,2.804-3.135
		c5.774-6.715,11.167-13.788,15.681-19.82c0.419-0.561,1.211-0.675,1.771-0.256c0.561,0.419,0.674,1.212,0.256,1.772
		c-4.54,6.065-9.965,13.181-15.789,19.954c-0.935,1.086-1.91,2.156-2.853,3.189c-1.667,1.83-3.392,3.721-4.894,5.71
		c-0.084,0.113-0.19,0.246-0.309,0.397c-1.178,1.492-1.531,2.195-1.591,2.526c0.646,0.212,1.526,0.117,2.379,0.025
		c0.359-0.039,0.711-0.076,1.049-0.095c2.077-0.118,4.204-0.523,6.26-0.916l1.906-0.358c3.626-0.677,7.377-1.377,10.67-2.669
		l0.079-0.031c2.132-0.838,4.55-1.789,4.921-3.872c0.456-2.557-1.616-4.834-3.796-5.678c-1.402-0.543-4.081-1.276-6.281-0.083
		c-1.536,0.834-3.154,2.323-3.074,3.621c0.084,1.384,1.644,2.618,3.041,2.969c1.058,0.266,2.98,0.119,3.717-0.428
		c0.561-0.417,1.354-0.302,1.771,0.261c0.418,0.562,0.301,1.354-0.26,1.771c-1.589,1.181-4.424,1.208-5.842,0.853
		c-2.339-0.586-4.79-2.585-4.952-5.27c-0.159-2.579,2.165-4.79,4.393-6c2.293-1.245,5.278-1.265,8.403-0.052
		C99.81,79.272,102.756,82.656,102.063,86.546z M125.855,81.487c-0.215,1.807-1.201,3.206-2.854,4.045
		c-2.286,1.165-4.785,1.635-7.202,2.09c-0.392,0.074-0.783,0.147-1.17,0.224c-1.376,0.271-2.602,0.549-3.783,0.818
		c-2.234,0.507-4.342,0.986-7.027,1.313c-0.051,0.007-0.104,0.01-0.154,0.01c-0.631,0-1.178-0.47-1.255-1.113
		c-0.085-0.693,0.407-1.324,1.103-1.409c2.559-0.312,4.604-0.777,6.772-1.269c1.202-0.274,2.444-0.557,3.856-0.833
		c0.395-0.077,0.791-0.152,1.191-0.229c2.24-0.421,4.559-0.857,6.521-1.856c0.89-0.453,1.375-1.136,1.489-2.088
		c0.24-2.02-1.206-4.633-2.684-5.897c-2.021-1.729-4.604-2.334-6.743-1.582c-1.717,0.606-3.486,2.349-3.279,3.88
		c0.188,1.429,1.219,2.081,2.047,2.376c1.711,0.609,3.896,0.226,5.086-0.891c0.51-0.479,1.311-0.455,1.789,0.055
		c0.478,0.51,0.453,1.311-0.056,1.79c-1.862,1.75-5.086,2.351-7.668,1.432c-2.082-0.741-3.435-2.354-3.71-4.426
		c-0.428-3.198,2.639-5.786,4.949-6.603c2.982-1.054,6.521-0.271,9.229,2.044C124.29,75.067,126.213,78.491,125.855,81.487z
		 M137.172,80.51c-0.477,1.431-1.501,2.585-2.74,3.085c-0.461,0.185-0.94,0.276-1.422,0.276c-0.629,0-1.266-0.158-1.863-0.472
		c-2.403-1.254-3.746-4.258-4.823-6.67c-0.257-0.576-0.5-1.12-0.739-1.596l-1.295-2.563c-1.327-2.628-2.701-5.347-3.994-8.062
		l-0.171-0.362c-1.733-3.645-3.526-7.415-6.142-10.369c-1.146-1.294-4.11-4.129-6.881-2.519c-2.705,1.572-4.529,4.842-4.25,7.606
		c0.104,0.995,0.549,1.801,1.285,2.331c0.844,0.605,1.997,0.802,3.164,0.539c1.037-0.235,3.426-1.013,3.186-3.145
		c-0.08-0.702-0.736-1.85-1.36-2.138c-0.158-0.073-0.276-0.084-0.485,0.058c-0.578,0.392-1.365,0.239-1.757-0.341
		c-0.392-0.579-0.239-1.366,0.341-1.757c0.922-0.622,1.975-0.714,2.963-0.258c1.551,0.716,2.647,2.674,2.814,4.154
		c0.32,2.846-1.648,5.105-5.141,5.896c-1.87,0.423-3.769,0.078-5.201-0.951c-1.322-0.951-2.148-2.417-2.326-4.128
		c-0.383-3.752,1.928-7.979,5.495-10.053c3.05-1.771,6.805-0.638,10.049,3.029c2.854,3.222,4.724,7.155,6.532,10.958l0.172,0.361
		c1.277,2.688,2.646,5.392,3.968,8.008l1.298,2.568c0.254,0.507,0.514,1.086,0.786,1.7c0.919,2.056,2.062,4.612,3.685,5.459
		c0.406,0.212,0.789,0.243,1.164,0.091c0.552-0.223,1.045-0.813,1.289-1.539c1.285-3.854,1.235-8.823-0.135-13.636
		c-3.396-11.931-14.812-19.136-23.789-23.08c-0.641-0.281-0.932-1.028-0.65-1.667c0.281-0.64,1.025-0.932,1.669-0.65
		c9.475,4.163,21.538,11.828,25.206,24.705C138.578,70.671,138.615,76.185,137.172,80.51z"/>
	<path fill="#FCFAE3" d="M100,10.5c-49.351,0-89.5,40.149-89.5,89.5c0,43.694,31.474,80.168,72.939,87.958
		c2.496-4.731,5.389-9.626,5.445-15.09c0.079-7.615-5.31-17.922-11.771-21.914c-4.586-2.833-8.952-2.978-14.067-3.613
		c-4.909-0.608-10.789-1.476-11.341-7.274c-0.351-3.687-0.107-7.812,0.247-11.457c0.253-2.597,1.705-8.465,0.506-10.918
		c-0.908-1.86-4.74-2.067-6.536-2.715c-3.121-1.127-3.117-1.925-2.64-5.053c0.677-4.435,2.43-9.043,3.659-13.398
		c2.159-7.651,4.234-15.357,6.471-23.003c3.569-12.199,8.29-23.229,17.317-32.278c8.472-8.495,17.369-13.305,29.478-14.719
		c23.375-2.73,45.859,12.613,51.189,35.506c3.246,13.949-0.867,31.325-6.096,44.31c-5.984,14.858-5.59,30.786,1.627,45.367
		c2.994,6.049,7.594,10.749,12.166,15.447C177.725,150.743,189.5,126.723,189.5,100C189.5,50.649,149.352,10.5,100,10.5z"/>
	<path fill="#FCFAE3" d="M0,0v200h200V0H0z M164.59,173.029c-0.003,0.003-0.007,0.006-0.011,0.009
		c-1.07,0.947-2.161,1.872-3.273,2.771c-0.003,0.003-0.006,0.005-0.008,0.007c-4.462,3.612-9.248,6.839-14.31,9.629
		c-0.006,0.002-0.011,0.006-0.017,0.009c-1.229,0.677-2.476,1.327-3.737,1.952c-0.065,0.032-0.131,0.065-0.196,0.098
		c-1.231,0.606-2.478,1.188-3.737,1.744c-0.089,0.039-0.178,0.077-0.268,0.116c-1.257,0.55-2.526,1.075-3.81,1.573
		c-0.078,0.03-0.156,0.059-0.234,0.089c-1.311,0.504-2.633,0.984-3.97,1.433c-0.017,0.006-0.034,0.011-0.051,0.016
		c-2.702,0.905-5.458,1.691-8.26,2.36c-0.108,0.026-0.217,0.054-0.325,0.079c-1.308,0.308-2.627,0.585-3.954,0.839
		c-0.177,0.034-0.354,0.069-0.531,0.102c-1.296,0.24-2.6,0.454-3.913,0.643c-0.204,0.029-0.409,0.058-0.614,0.086
		c-1.31,0.18-2.627,0.335-3.953,0.462c-0.194,0.02-0.391,0.035-0.586,0.053c-1.353,0.121-2.712,0.22-4.08,0.285
		c-0.14,0.007-0.28,0.01-0.42,0.017c-1.437,0.063-2.88,0.101-4.332,0.101c-0.857,0-1.711-0.012-2.563-0.033
		c-0.172-0.005-0.344-0.015-0.516-0.02c-0.684-0.021-1.368-0.046-2.048-0.081c-0.141-0.008-0.281-0.019-0.421-0.026
		c-0.715-0.041-1.429-0.086-2.14-0.141c-0.087-0.007-0.174-0.017-0.261-0.023c-0.765-0.062-1.529-0.131-2.289-0.21
		c-0.04-0.005-0.08-0.01-0.12-0.014c-0.808-0.086-1.613-0.181-2.415-0.286c-0.001,0-0.002,0-0.002,0
		C39.414,190.407,2.5,149.516,2.5,100C2.5,46.153,46.153,2.5,100,2.5c53.848,0,97.5,43.653,97.5,97.5
		C197.5,129.07,184.771,155.166,164.59,173.029z"/>
</g>
</svg>
