<?xml version="1.0" encoding="utf-8"?>
<!-- Generator: Adobe Illustrator 16.0.0, SVG Export Plug-In . SVG Version: 6.00 Build 0)  -->
<!DOCTYPE svg PUBLIC "-//W3C//DTD SVG 1.1//EN" "http://www.w3.org/Graphics/SVG/1.1/DTD/svg11.dtd">
<svg version="1.1" id="Layer_1" xmlns="http://www.w3.org/2000/svg" xmlns:xlink="http://www.w3.org/1999/xlink" x="0px" y="0px"
	 width="200px" height="200px" viewBox="0 0 200 200" enable-background="new 0 0 200 200" xml:space="preserve">
<g id="Layer_1_1_" display="none">
	<g display="inline">
		<g>
			<defs>
				<rect id="SVGID_1_" x="10.639" width="178.722" height="200"/>
			</defs>
			<clipPath id="SVGID_2_">
				<use xlink:href="#SVGID_1_"  overflow="visible"/>
			</clipPath>
			<g transform="matrix(1 0 0 1 -1.525879e-005 -3.814697e-006)" opacity="0.5" clip-path="url(#SVGID_2_)">
				
					<image overflow="visible" enable-background="new    " width="277" height="183" xlink:href="1BABD350.jpeg"  transform="matrix(1.3827 0 0 1.3801 -193.6318 -52.5547)">
				</image>
			</g>
		</g>
	</g>
</g>
<path d="M137.072,65.38c1.506,5.291,1.543,10.805,0.1,15.13c-0.477,1.431-1.501,2.585-2.74,3.085
	c-0.461,0.185-0.94,0.276-1.422,0.276c-0.629,0-1.266-0.158-1.863-0.472c-2.403-1.254-3.746-4.258-4.823-6.67
	c-0.257-0.576-0.5-1.12-0.739-1.596l-1.295-2.563c-1.327-2.628-2.701-5.347-3.994-8.062l-0.171-0.362
	c-1.733-3.645-3.526-7.415-6.142-10.369c-1.146-1.294-4.11-4.129-6.881-2.519c-2.705,1.572-4.529,4.842-4.25,7.606
	c0.104,0.995,0.549,1.801,1.285,2.331c0.844,0.605,1.997,0.802,3.164,0.539c1.037-0.235,3.426-1.013,3.186-3.145
	c-0.08-0.702-0.736-1.85-1.36-2.138c-0.158-0.073-0.276-0.084-0.485,0.058c-0.578,0.392-1.365,0.239-1.757-0.341
	c-0.392-0.579-0.239-1.366,0.341-1.757c0.922-0.622,1.975-0.714,2.963-0.258c1.551,0.716,2.647,2.674,2.814,4.154
	c0.32,2.846-1.648,5.105-5.141,5.896c-1.87,0.423-3.769,0.078-5.201-0.951c-1.322-0.951-2.148-2.417-2.326-4.128
	c-0.383-3.752,1.928-7.979,5.495-10.053c3.05-1.771,6.805-0.638,10.049,3.029c2.854,3.222,4.724,7.155,6.532,10.958l0.172,0.361
	c1.277,2.688,2.646,5.392,3.968,8.008l1.298,2.568c0.254,0.507,0.514,1.086,0.786,1.7c0.919,2.056,2.062,4.612,3.685,5.459
	c0.406,0.212,0.789,0.243,1.164,0.091c0.552-0.223,1.045-0.813,1.289-1.539c1.285-3.854,1.235-8.823-0.135-13.636
	c-3.396-11.931-14.812-19.136-23.789-23.08c-0.641-0.281-0.932-1.028-0.65-1.667c0.281-0.64,1.025-0.932,1.669-0.65
	C121.341,44.838,133.404,52.503,137.072,65.38z M122.303,73.367c-2.707-2.315-6.246-3.098-9.229-2.044
	c-2.311,0.816-5.377,3.405-4.949,6.603c0.275,2.072,1.628,3.686,3.71,4.426c2.582,0.919,5.806,0.318,7.668-1.432
	c0.509-0.479,0.533-1.28,0.056-1.79c-0.479-0.51-1.279-0.534-1.789-0.055c-1.189,1.117-3.375,1.5-5.086,0.891
	c-0.828-0.295-1.858-0.947-2.047-2.376c-0.207-1.531,1.563-3.274,3.279-3.88c2.139-0.752,4.723-0.147,6.743,1.582
	c1.478,1.264,2.924,3.877,2.684,5.897c-0.114,0.952-0.6,1.635-1.489,2.088c-1.963,0.999-4.281,1.436-6.521,1.856
	c-0.4,0.077-0.797,0.152-1.191,0.229c-1.412,0.276-2.654,0.559-3.856,0.833c-2.168,0.492-4.214,0.957-6.772,1.269
	c-0.695,0.085-1.188,0.716-1.103,1.409c0.077,0.643,0.624,1.113,1.255,1.113c0.05,0,0.104-0.003,0.154-0.01
	c2.686-0.327,4.793-0.806,7.027-1.313c1.182-0.269,2.407-0.547,3.783-0.818c0.387-0.077,0.778-0.149,1.17-0.224
	c2.417-0.455,4.916-0.925,7.202-2.09c1.653-0.839,2.64-2.238,2.854-4.045C126.213,78.491,124.29,75.067,122.303,73.367z
	 M96.687,78.064c-3.125-1.213-6.11-1.193-8.403,0.052c-2.228,1.21-4.552,3.421-4.393,6c0.162,2.685,2.613,4.684,4.952,5.27
	c1.418,0.355,4.253,0.328,5.842-0.853c0.561-0.416,0.678-1.209,0.26-1.771c-0.417-0.563-1.21-0.678-1.771-0.261
	c-0.737,0.547-2.659,0.693-3.717,0.428c-1.397-0.351-2.957-1.585-3.041-2.969c-0.08-1.298,1.538-2.787,3.074-3.621
	c2.2-1.193,4.879-0.46,6.281,0.083c2.18,0.844,4.252,3.121,3.796,5.678c-0.371,2.083-2.789,3.034-4.921,3.872l-0.079,0.031
	c-3.293,1.292-7.044,1.992-10.67,2.669l-1.906,0.358c-2.056,0.393-4.183,0.798-6.26,0.916c-0.338,0.019-0.69,0.056-1.049,0.095
	c-0.853,0.092-1.733,0.187-2.379-0.025c0.06-0.331,0.413-1.034,1.591-2.526c0.119-0.151,0.225-0.284,0.309-0.397
	c1.502-1.989,3.227-3.88,4.894-5.71c0.943-1.034,1.918-2.104,2.853-3.189c5.824-6.773,11.249-13.889,15.789-19.954
	c0.418-0.561,0.305-1.354-0.256-1.772c-0.56-0.419-1.352-0.305-1.771,0.256c-4.514,6.032-9.907,13.105-15.681,19.82
	c-0.91,1.058-1.873,2.114-2.804,3.135c-1.707,1.872-3.471,3.808-5.043,5.891c-0.075,0.101-0.17,0.22-0.275,0.354
	c-1.289,1.631-2.508,3.354-2.047,4.912c0.127,0.427,0.505,1.2,1.618,1.576c0.597,0.203,1.208,0.268,1.805,0.268
	c0.576,0,1.14-0.061,1.669-0.12c0.315-0.034,0.624-0.067,0.922-0.084c2.244-0.128,4.453-0.549,6.591-0.957l1.896-0.356
	c3.742-0.698,7.614-1.421,11.132-2.801l0.079-0.031c2.477-0.974,5.869-2.307,6.488-5.784C102.756,82.656,99.81,79.272,96.687,78.064
	z M164.59,173.029L164.59,173.029c-0.003,0.003-0.007,0.006-0.011,0.009c-1.07,0.947-2.161,1.872-3.273,2.771
	c-0.003,0.003-0.006,0.005-0.008,0.007c-4.462,3.612-9.248,6.839-14.31,9.629c-0.006,0.002-0.011,0.006-0.017,0.009
	c-1.229,0.677-2.476,1.327-3.737,1.952c-0.065,0.032-0.131,0.065-0.196,0.098c-1.231,0.606-2.478,1.188-3.737,1.744
	c-0.089,0.039-0.178,0.077-0.268,0.116c-1.257,0.55-2.526,1.075-3.81,1.573c-0.078,0.03-0.156,0.059-0.234,0.089
	c-1.311,0.504-2.633,0.984-3.97,1.433c-0.017,0.006-0.034,0.011-0.051,0.016c-2.702,0.905-5.458,1.691-8.26,2.36
	c-0.108,0.026-0.217,0.054-0.325,0.079c-1.308,0.308-2.627,0.585-3.954,0.839c-0.177,0.034-0.354,0.069-0.531,0.102
	c-1.296,0.24-2.6,0.454-3.913,0.643c-0.204,0.029-0.409,0.058-0.614,0.086c-1.31,0.18-2.627,0.335-3.953,0.462
	c-0.194,0.02-0.391,0.035-0.586,0.053c-1.353,0.121-2.712,0.22-4.08,0.285c-0.14,0.007-0.28,0.01-0.42,0.017
	c-1.437,0.063-2.88,0.101-4.332,0.101c-0.857,0-1.711-0.012-2.563-0.033c-0.172-0.005-0.344-0.015-0.516-0.02
	c-0.684-0.021-1.368-0.046-2.048-0.081c-0.141-0.008-0.281-0.019-0.421-0.026c-0.715-0.041-1.429-0.086-2.14-0.141
	c-0.087-0.007-0.174-0.017-0.261-0.023c-0.765-0.062-1.529-0.131-2.289-0.21c-0.04-0.005-0.08-0.01-0.12-0.014
	c-0.808-0.086-1.613-0.181-2.415-0.286c-0.001,0-0.002,0-0.002,0C39.414,190.407,2.5,149.516,2.5,100C2.5,46.153,46.153,2.5,100,2.5
	c53.848,0,97.5,43.653,97.5,97.5C197.5,129.07,184.771,155.166,164.59,173.029z M141.6,80.322c1.209-2.773,0.666-5.814-0.063-8.717
	c-0.741-2.961-0.959-5.965-1.637-8.825c-1.953-8.27-6.578-15.595-13.698-20.426c-3.373-2.289-7.351-4.014-11.235-5.153
	c-1.563-0.458-3.236-0.626-4.697-0.138c-2.608,3.048-4.363,6.801-7.109,9.743c-3.275,3.506-5.489,7.765-8.395,11.534
	c-2.287,2.968-4.59,5.864-7.047,8.657c-2.981,3.388-5.163,7.18-8.057,10.763c-3.635,4.501-7.286,8.864-11.064,13.219
	c-1.24,1.43-5.628,5.312-4.349,7.35c1.63,2.596,6.659,1.817,9.051,1.295c5.098-1.115,10.181-2.312,15.272-3.4
	c6.34-1.355,12.576-3.142,18.978-4.341c4.501-0.843,8.857-2.327,13.314-3.203C126.792,87.514,138.747,86.872,141.6,80.322z
	 M159.094,167.156C177.725,150.743,189.5,126.723,189.5,100c0-49.351-40.148-89.5-89.5-89.5c-49.351,0-89.5,40.149-89.5,89.5
	c0,43.694,31.474,80.168,72.939,87.958c2.496-4.731,5.389-9.626,5.445-15.09c0.079-7.615-5.31-17.922-11.771-21.914
	c-4.586-2.833-8.952-2.978-14.067-3.613c-4.909-0.608-10.789-1.476-11.341-7.274c-0.351-3.687-0.107-7.812,0.247-11.457
	c0.253-2.597,1.705-8.465,0.506-10.918c-0.908-1.86-4.74-2.067-6.536-2.715c-3.121-1.127-3.117-1.925-2.64-5.053
	c0.677-4.435,2.43-9.043,3.659-13.398c2.159-7.651,4.234-15.357,6.471-23.003c3.569-12.199,8.29-23.229,17.317-32.278
	c8.472-8.495,17.369-13.305,29.478-14.719c23.375-2.73,45.859,12.613,51.189,35.506c3.246,13.949-0.867,31.325-6.096,44.31
	c-5.984,14.858-5.59,30.786,1.627,45.367C149.922,157.758,154.521,162.458,159.094,167.156L159.094,167.156z"/>
</svg>
