<svg xmlns:svg="http://www.w3.org/2000/svg" xmlns="http://www.w3.org/2000/svg" width="43.292671mm" height="47.723095mm" viewBox="0 0 43.292671 47.723095" version="1.1" id="svg8">
  <title id="title4524">
    hand
  </title>
  <defs id="defs2"/>
  <metadata id="metadata5"/>
  <g id="layer1" transform="translate(-67.552433,-77.771765)">
    <path d="M94.777527 125.20982 72.66592 121.05208c0 0-5.38616-0.18898-5.102677-4.44121 0.283482-4.25224 6.425594-3.40179 6.425594-3.40179l9.638394-0.56697-0.472471-8.03199-6.614584-19.0878c0 0-1.511903-3.212798 0.755955-3.96875 2.267857-0.755951 3.685267 2.645834 3.685267 2.645834l7.181548 15.780501-0.944942-18.804311c0 0-0.75595-3.307291 2.173363-3.401785 2.929316-0.09449 2.929315 3.118304 2.929315 3.118304l3.2128 17.575888 1.228421-17.386901c0 0-0.188987-2.834823 2.834822-2.929316 3.023805-0.09449 2.456835 2.834822 2.456835 2.834822l0.00001 19.182294 3.96874-16.819942c0 0 0.28349-2.929316 2.64584-2.55134 2.36235 0.377975 2.17336 2.645833 2.17336 2.645833l-1.5119 18.142849 0.66146 17.38691c0 0 1.22843 8.12649-15.213543 6.23661z" id="path4520" fill="#335e50"/>
  </g>
</svg>
